<svg xmlns="http://www.w3.org/2000/svg" width="1600" height="720" viewBox="0 0 1600 720">
  <rect width="100%" height="100%" fill="#fcfbf8"/>
  <style>
    .t { font-family: Arial, Helvetica, sans-serif; fill: #1f2430; }
    .m { font-family: Courier New, Consolas, monospace; fill: #1f2430; }
    .title { font-size: 36px; font-weight: 700; letter-spacing: 0.5px; }
    .subtitle { font-size: 16px; fill: #667085; }
    .axis { stroke: #2f3440; stroke-width: 1.4; }
    .grid { stroke: #e6e2d9; stroke-width: 1; }
    .small { font-size: 14px; }
    .label { font-size: 18px; }
    .tick { font-size: 15px; fill: #667085; }
    .mono { font-family: Courier New, Consolas, monospace; font-size: 15px; fill: #1f2430; }
    .note { font-size: 15px; fill: #667085; }
  </style>

<text x="110" y="82" class="t title">curriculum scale summary</text>
<text x="110" y="112" class="t subtitle">active workstream as of 2026-04-23</text>
<line x1="110" y1="130" x2="1490" y2="130" class="grid"/>

<text x="1110" y="82" class="m small">chapters: 36</text>
<text x="1110" y="108" class="m small">phases: 6</text>
<text x="1260" y="82" class="m small">pages/chapter: 20-25</text>
<text x="1260" y="108" class="m small">pages total: 720-900</text>

<line x1="260" y1="200" x2="1460" y2="200" class="grid"/>
<line x1="260" y1="265" x2="1460" y2="265" class="grid"/>
<line x1="260" y1="330" x2="1460" y2="330" class="grid"/>
<line x1="260" y1="395" x2="1460" y2="395" class="grid"/>
<line x1="260" y1="460" x2="1460" y2="460" class="grid"/>
<line x1="260" y1="525" x2="1460" y2="525" class="grid"/>
<line x1="260" y1="590" x2="1460" y2="590" class="grid"/>
<line x1="260" y1="170" x2="260" y2="590" class="axis"/>
<line x1="260" y1="590" x2="1460" y2="590" class="axis"/>

<text x="248" y="620" class="t tick">0</text>
<text x="394" y="620" class="t tick">1</text>
<text x="544" y="620" class="t tick">2</text>
<text x="694" y="620" class="t tick">3</text>
<text x="844" y="620" class="t tick">4</text>
<text x="994" y="620" class="t tick">5</text>
<text x="1144" y="620" class="t tick">6</text>
<text x="1294" y="620" class="t tick">7</text>
<text x="1444" y="620" class="t tick">8</text>
<text x="820" y="656" class="t label" text-anchor="middle">chapters per phase</text>

<text x="110" y="210" class="t label">phase 1  math fundamentals</text>
<text x="110" y="275" class="t label">phase 2  biology fundamentals</text>
<text x="110" y="340" class="t label">phase 3  brain computation</text>
<text x="110" y="405" class="t label">phase 4  ml math</text>
<text x="110" y="470" class="t label">phase 5  advanced architectures</text>
<text x="110" y="535" class="t label">phase 6  paper implementation</text>

<rect x="260" y="183" width="1200" height="34" fill="none" stroke="#d9d3c6" stroke-width="1"/>
<rect x="260" y="183" width="1200" height="34" fill="#345c8c" opacity="0.18"/>
<rect x="260" y="248" width="900" height="34" fill="none" stroke="#d9d3c6" stroke-width="1"/>
<rect x="260" y="248" width="900" height="34" fill="#345c8c" opacity="0.18"/>
<rect x="260" y="313" width="900" height="34" fill="none" stroke="#d9d3c6" stroke-width="1"/>
<rect x="260" y="313" width="900" height="34" fill="#345c8c" opacity="0.18"/>
<rect x="260" y="378" width="900" height="34" fill="none" stroke="#d9d3c6" stroke-width="1"/>
<rect x="260" y="378" width="900" height="34" fill="#345c8c" opacity="0.18"/>
<rect x="260" y="443" width="900" height="34" fill="none" stroke="#d9d3c6" stroke-width="1"/>
<rect x="260" y="443" width="900" height="34" fill="#345c8c" opacity="0.18"/>
<rect x="260" y="508" width="600" height="34" fill="none" stroke="#d9d3c6" stroke-width="1"/>
<rect x="260" y="508" width="600" height="34" fill="#345c8c" opacity="0.18"/>

<text x="1472" y="206" class="m small">8 ch   160-200 pp</text>
<text x="1172" y="271" class="m small">6 ch   120-150 pp</text>
<text x="1172" y="336" class="m small">6 ch   120-150 pp</text>
<text x="1172" y="401" class="m small">6 ch   120-150 pp</text>
<text x="1172" y="466" class="m small">6 ch   120-150 pp</text>
<text x="872" y="531" class="m small">4 ch    80-100 pp</text>

</svg>