<svg xmlns="http://www.w3.org/2000/svg" width="1600" height="760" viewBox="0 0 1600 760">
  <rect width="100%" height="100%" fill="#fcfbf8"/>
  <style>
    .t { font-family: Arial, Helvetica, sans-serif; fill: #1f2430; }
    .m { font-family: Courier New, Consolas, monospace; fill: #1f2430; }
    .title { font-size: 36px; font-weight: 700; letter-spacing: 0.5px; }
    .subtitle { font-size: 16px; fill: #667085; }
    .axis { stroke: #2f3440; stroke-width: 1.4; }
    .grid { stroke: #e6e2d9; stroke-width: 1; }
    .small { font-size: 14px; }
    .label { font-size: 18px; }
    .tick { font-size: 15px; fill: #667085; }
    .mono { font-family: Courier New, Consolas, monospace; font-size: 15px; fill: #1f2430; }
    .note { font-size: 15px; fill: #667085; }
  </style>

<text x="110" y="82" class="t title">wiki structure counts</text>
<text x="110" y="112" class="t subtitle">current tree at 2026-04-23</text>
<line x1="110" y1="130" x2="1490" y2="130" class="grid"/>

<text x="1110" y="82" class="m small">total markdown files: 248</text>
<text x="1110" y="108" class="m small">content articles: 241</text>
<text x="1290" y="82" class="m small">navigation/meta: 7</text>
<text x="1290" y="108" class="m small">last updated: 2026-04-23</text>

<line x1="300" y1="180" x2="1460" y2="180" class="grid"/>
<line x1="300" y1="235" x2="1460" y2="235" class="grid"/>
<line x1="300" y1="290" x2="1460" y2="290" class="grid"/>
<line x1="300" y1="345" x2="1460" y2="345" class="grid"/>
<line x1="300" y1="400" x2="1460" y2="400" class="grid"/>
<line x1="300" y1="455" x2="1460" y2="455" class="grid"/>
<line x1="300" y1="510" x2="1460" y2="510" class="grid"/>
<line x1="300" y1="565" x2="1460" y2="565" class="grid"/>
<line x1="300" y1="620" x2="1460" y2="620" class="grid"/>
<line x1="300" y1="675" x2="1460" y2="675" class="grid"/>
<line x1="300" y1="150" x2="300" y2="675" class="axis"/>
<line x1="300" y1="675" x2="1460" y2="675" class="axis"/>

<text x="292" y="704" class="t tick">0</text>
<text x="470" y="704" class="t tick">10</text>
<text x="648" y="704" class="t tick">20</text>
<text x="826" y="704" class="t tick">30</text>
<text x="1004" y="704" class="t tick">40</text>
<text x="1182" y="704" class="t tick">50</text>
<text x="1360" y="704" class="t tick">60</text>

<text x="110" y="218" class="t label">mechanisms</text>
<text x="110" y="273" class="t label">knowledge</text>
<text x="110" y="328" class="t label">entities</text>
<text x="110" y="383" class="t label">bridge</text>
<text x="110" y="438" class="t label">synthesis</text>
<text x="110" y="493" class="t label">tests</text>
<text x="110" y="548" class="t label">comparisons</text>
<text x="110" y="603" class="t label">concepts</text>
<text x="110" y="658" class="t label">mistakes</text>

<rect x="300" y="196" width="1110" height="24" fill="#345c8c" opacity="0.20"/>
<rect x="300" y="251" width="893" height="24" fill="#345c8c" opacity="0.20"/>
<rect x="300" y="306" width="601" height="24" fill="#345c8c" opacity="0.20"/>
<rect x="300" y="361" width="510" height="24" fill="#345c8c" opacity="0.20"/>
<rect x="300" y="416" width="437" height="24" fill="#345c8c" opacity="0.20"/>
<rect x="300" y="471" width="419" height="24" fill="#345c8c" opacity="0.20"/>
<rect x="300" y="526" width="273" height="24" fill="#345c8c" opacity="0.20"/>
<rect x="300" y="581" width="128" height="24" fill="#9aa3b2" opacity="0.40"/>
<rect x="300" y="636" width="36" height="24" fill="#9aa3b2" opacity="0.40"/>

<text x="1422" y="215" class="m small">61</text>
<text x="1205" y="270" class="m small">49</text>
<text x="913" y="325" class="m small">33</text>
<text x="822" y="380" class="m small">28</text>
<text x="749" y="435" class="m small">24</text>
<text x="731" y="490" class="m small">23</text>
<text x="585" y="545" class="m small">15</text>
<text x="440" y="600" class="m small">7</text>
<text x="348" y="655" class="m small">2</text>

</svg>