<svg xmlns="http://www.w3.org/2000/svg" width="960" height="520" viewBox="0 0 960 520">
  <rect width="960" height="520" fill="#f6f8fb"/>
  <text x="60" y="58" font-family="Arial, sans-serif" font-size="28" fill="#1f2937">a1 jepa family timeline</text>
  <text x="60" y="88" font-family="Arial, sans-serif" font-size="16" fill="#475569">latent-target state-learning line from general masked targets to action-conditioned video prediction</text>
  <line x1="110" y1="280" x2="860" y2="280" stroke="#94a3b8" stroke-width="6"/>
  <circle cx="170" cy="280" r="16" fill="#1d4ed8"/>
  <circle cx="320" cy="280" r="16" fill="#2563eb"/>
  <circle cx="470" cy="280" r="16" fill="#0ea5e9"/>
  <circle cx="640" cy="280" r="16" fill="#16a34a"/>
  <circle cx="790" cy="280" r="16" fill="#f59e0b"/>
  <text x="135" y="240" font-family="Arial, sans-serif" font-size="18" fill="#334155">2022</text>
  <text x="268" y="240" font-family="Arial, sans-serif" font-size="18" fill="#334155">2023</text>
  <text x="415" y="240" font-family="Arial, sans-serif" font-size="18" fill="#334155">2024</text>
  <text x="585" y="240" font-family="Arial, sans-serif" font-size="18" fill="#334155">2025</text>
  <text x="735" y="240" font-family="Arial, sans-serif" font-size="18" fill="#334155">2026</text>
  <rect x="120" y="315" width="100" height="52" rx="14" fill="#1d4ed8"/>
  <rect x="270" y="315" width="100" height="52" rx="14" fill="#2563eb"/>
  <rect x="420" y="315" width="100" height="52" rx="14" fill="#0ea5e9"/>
  <rect x="585" y="315" width="110" height="52" rx="14" fill="#16a34a"/>
  <rect x="735" y="315" width="110" height="52" rx="14" fill="#f59e0b"/>
  <text x="136" y="347" font-family="Arial, sans-serif" font-size="18" fill="#ffffff">data2vec</text>
  <text x="298" y="347" font-family="Arial, sans-serif" font-size="18" fill="#ffffff">i-jepa</text>
  <text x="447" y="347" font-family="Arial, sans-serif" font-size="18" fill="#ffffff">v-jepa</text>
  <text x="612" y="347" font-family="Arial, sans-serif" font-size="18" fill="#ffffff">v-jepa 2</text>
  <text x="758" y="347" font-family="Arial, sans-serif" font-size="18" fill="#ffffff">v-jepa 2.1</text>
  <text x="120" y="430" font-family="Arial, sans-serif" font-size="16" fill="#475569">trend: from masked latent targets toward richer temporal state and action-conditioned planning</text>
</svg>
