<svg xmlns="http://www.w3.org/2000/svg" width="960" height="620" viewBox="0 0 960 620">
  <rect width="960" height="620" fill="#f6f8fb"/>
  <text x="60" y="60" font-family="Arial, sans-serif" font-size="28" fill="#1f2937">n1 microcircuit connectivity map</text>
  <text x="60" y="90" font-family="Arial, sans-serif" font-size="16" fill="#475569">schematic laminar and cell-type connectivity inspired by potjans and diesmann</text>
  <text x="260" y="145" font-family="Arial, sans-serif" font-size="16" fill="#334155">l2/3</text>
  <text x="400" y="145" font-family="Arial, sans-serif" font-size="16" fill="#334155">l4</text>
  <text x="540" y="145" font-family="Arial, sans-serif" font-size="16" fill="#334155">l5</text>
  <text x="680" y="145" font-family="Arial, sans-serif" font-size="16" fill="#334155">l6</text>
  <text x="150" y="205" font-family="Arial, sans-serif" font-size="16" fill="#334155">l2/3 e</text>
  <text x="150" y="285" font-family="Arial, sans-serif" font-size="16" fill="#334155">l4 e</text>
  <text x="150" y="365" font-family="Arial, sans-serif" font-size="16" fill="#334155">l5 e</text>
  <text x="150" y="445" font-family="Arial, sans-serif" font-size="16" fill="#334155">l6 e</text>
  <rect x="240" y="160" width="100" height="60" fill="#1d4ed8" opacity="0.85"/>
  <rect x="380" y="160" width="100" height="60" fill="#93c5fd"/>
  <rect x="520" y="160" width="100" height="60" fill="#60a5fa"/>
  <rect x="660" y="160" width="100" height="60" fill="#bfdbfe"/>
  <rect x="240" y="240" width="100" height="60" fill="#93c5fd"/>
  <rect x="380" y="240" width="100" height="60" fill="#1d4ed8" opacity="0.8"/>
  <rect x="520" y="240" width="100" height="60" fill="#60a5fa"/>
  <rect x="660" y="240" width="100" height="60" fill="#bfdbfe"/>
  <rect x="240" y="320" width="100" height="60" fill="#60a5fa"/>
  <rect x="380" y="320" width="100" height="60" fill="#93c5fd"/>
  <rect x="520" y="320" width="100" height="60" fill="#1d4ed8" opacity="0.75"/>
  <rect x="660" y="320" width="100" height="60" fill="#60a5fa"/>
  <rect x="240" y="400" width="100" height="60" fill="#bfdbfe"/>
  <rect x="380" y="400" width="100" height="60" fill="#93c5fd"/>
  <rect x="520" y="400" width="100" height="60" fill="#60a5fa"/>
  <rect x="660" y="400" width="100" height="60" fill="#1d4ed8" opacity="0.8"/>
  <text x="790" y="190" font-family="Arial, sans-serif" font-size="16" fill="#334155">darker cells</text>
  <text x="790" y="214" font-family="Arial, sans-serif" font-size="16" fill="#334155">stronger effective coupling</text>
  <text x="790" y="310" font-family="Arial, sans-serif" font-size="16" fill="#334155">use as a visual anchor for:</text>
  <text x="790" y="336" font-family="Arial, sans-serif" font-size="16" fill="#334155">structured recurrence</text>
  <text x="790" y="362" font-family="Arial, sans-serif" font-size="16" fill="#334155">laminar directionality</text>
  <text x="790" y="388" font-family="Arial, sans-serif" font-size="16" fill="#334155">cell-type asymmetry</text>
  <text x="60" y="550" font-family="Arial, sans-serif" font-size="15" fill="#475569">blue: state-flow connectivity. this redraw is schematic and should be read with the source shelf, not as a reproduced numerical table.</text>
</svg>
