<svg xmlns="http://www.w3.org/2000/svg" width="980" height="620" viewBox="0 0 980 620">
  <rect width="980" height="620" fill="#f6f8fb"/>
  <text x="60" y="56" font-family="Arial, sans-serif" font-size="28" fill="#1f2937">a2 world model control loop comparison</text>
  <text x="60" y="86" font-family="Arial, sans-serif" font-size="16" fill="#475569">dreamerv3, td-mpc2, and v-jepa 2 aligned by state, imagination, planner, and action-conditioning</text>
  <rect x="80" y="140" width="260" height="380" rx="20" fill="#e0f2fe" stroke="#0ea5e9" stroke-width="2"/>
  <text x="165" y="182" font-family="Arial, sans-serif" font-size="24" fill="#0f172a">dreamerv3</text>
  <rect x="120" y="220" width="180" height="48" rx="14" fill="#2563eb"/><text x="170" y="250" font-family="Arial, sans-serif" font-size="18" fill="#ffffff">belief state</text>
  <rect x="120" y="295" width="180" height="48" rx="14" fill="#16a34a"/><text x="165" y="325" font-family="Arial, sans-serif" font-size="18" fill="#ffffff">imagination</text>
  <rect x="120" y="370" width="180" height="48" rx="14" fill="#f59e0b"/><text x="160" y="400" font-family="Arial, sans-serif" font-size="18" fill="#ffffff">actor critic</text>
  <text x="118" y="462" font-family="Arial, sans-serif" font-size="16" fill="#334155">full recurrent latent loop</text>
  <rect x="360" y="140" width="260" height="380" rx="20" fill="#ecfccb" stroke="#84cc16" stroke-width="2"/>
  <text x="455" y="182" font-family="Arial, sans-serif" font-size="24" fill="#0f172a">td-mpc2</text>
  <rect x="400" y="220" width="180" height="48" rx="14" fill="#2563eb"/><text x="450" y="250" font-family="Arial, sans-serif" font-size="18" fill="#ffffff">latent state</text>
  <rect x="400" y="295" width="180" height="48" rx="14" fill="#16a34a"/><text x="455" y="325" font-family="Arial, sans-serif" font-size="18" fill="#ffffff">mpc rollout</text>
  <rect x="400" y="370" width="180" height="48" rx="14" fill="#f59e0b"/><text x="443" y="400" font-family="Arial, sans-serif" font-size="18" fill="#ffffff">value-guided plan</text>
  <text x="400" y="462" font-family="Arial, sans-serif" font-size="16" fill="#334155">planner-first latent control</text>
  <rect x="640" y="140" width="260" height="380" rx="20" fill="#fef3c7" stroke="#f59e0b" stroke-width="2"/>
  <text x="728" y="182" font-family="Arial, sans-serif" font-size="24" fill="#0f172a">v-jepa 2</text>
  <rect x="680" y="220" width="180" height="48" rx="14" fill="#2563eb"/><text x="713" y="250" font-family="Arial, sans-serif" font-size="18" fill="#ffffff">latent targets</text>
  <rect x="680" y="295" width="180" height="48" rx="14" fill="#16a34a"/><text x="704" y="325" font-family="Arial, sans-serif" font-size="18" fill="#ffffff">video dynamics</text>
  <rect x="680" y="370" width="180" height="48" rx="14" fill="#f59e0b"/><text x="695" y="400" font-family="Arial, sans-serif" font-size="18" fill="#ffffff">action post-train</text>
  <text x="677" y="462" font-family="Arial, sans-serif" font-size="16" fill="#334155">state-learning first, action later</text>
</svg>
