<svg xmlns="http://www.w3.org/2000/svg" width="960" height="580" viewBox="0 0 960 580">
  <rect width="960" height="580" fill="#f6f8fb"/>
  <text x="60" y="58" font-family="Arial, sans-serif" font-size="28" fill="#1f2937">n4 dendritic coincidence and bac</text>
  <text x="60" y="88" font-family="Arial, sans-serif" font-size="16" fill="#475569">schematic of branch-local coincidence, plateau, and burst output</text>
  <line x1="430" y1="430" x2="430" y2="210" stroke="#64748b" stroke-width="16" stroke-linecap="round"/>
  <line x1="430" y1="260" x2="320" y2="160" stroke="#64748b" stroke-width="12" stroke-linecap="round"/>
  <line x1="430" y1="260" x2="540" y2="160" stroke="#64748b" stroke-width="12" stroke-linecap="round"/>
  <line x1="430" y1="340" x2="320" y2="420" stroke="#64748b" stroke-width="12" stroke-linecap="round"/>
  <line x1="430" y1="340" x2="540" y2="420" stroke="#64748b" stroke-width="12" stroke-linecap="round"/>
  <circle cx="430" cy="320" r="36" fill="#0f766e"/>
  <text x="401" y="327" font-family="Arial, sans-serif" font-size="18" fill="#ffffff">soma</text>
  <rect x="180" y="135" width="120" height="42" rx="12" fill="#2563eb"/>
  <text x="198" y="162" font-family="Arial, sans-serif" font-size="18" fill="#ffffff">top-down</text>
  <rect x="180" y="405" width="140" height="42" rx="12" fill="#16a34a"/>
  <text x="198" y="432" font-family="Arial, sans-serif" font-size="18" fill="#ffffff">bottom-up</text>
  <line x1="300" y1="156" x2="360" y2="190" stroke="#2563eb" stroke-width="5"/>
  <polygon points="349,182 372,197 347,204" fill="#2563eb"/>
  <line x1="320" y1="426" x2="370" y2="392" stroke="#16a34a" stroke-width="5"/>
  <polygon points="360,387 383,383 369,404" fill="#16a34a"/>
  <rect x="555" y="185" width="200" height="52" rx="14" fill="#dc2626"/>
  <text x="582" y="217" font-family="Arial, sans-serif" font-size="20" fill="#ffffff">plateau commit</text>
  <line x1="540" y1="170" x2="555" y2="205" stroke="#dc2626" stroke-width="5"/>
  <polygon points="547,193 560,218 536,213" fill="#dc2626"/>
  <rect x="620" y="360" width="170" height="52" rx="14" fill="#f59e0b"/>
  <text x="665" y="392" font-family="Arial, sans-serif" font-size="20" fill="#ffffff">burst output</text>
  <line x1="466" y1="320" x2="620" y2="385" stroke="#f59e0b" stroke-width="5"/>
  <polygon points="610,373 642,394 606,399" fill="#f59e0b"/>
  <text x="560" y="290" font-family="Arial, sans-serif" font-size="16" fill="#334155">local coincidence on one branch</text>
  <text x="560" y="316" font-family="Arial, sans-serif" font-size="16" fill="#334155">opens a longer-lived event</text>
  <text x="60" y="530" font-family="Arial, sans-serif" font-size="15" fill="#475569">green: bottom-up. blue: top-down. red: branch-local commit. orange: changed output regime.</text>
</svg>
